<?xml version="1.0" encoding="UTF-8" standalone="no"?>
<!-- Created with Inkscape (http://www.inkscape.org/) -->

<svg
   width="598.05774mm"
   height="597.4848mm"
   viewBox="0 0 598.05774 597.4848"
   version="1.1"
   id="svg1"
   xml:space="preserve"
   inkscape:export-filename="image.svg"
   inkscape:export-xdpi="96"
   inkscape:export-ydpi="96"
   sodipodi:docname="image.svg"
   xmlns:inkscape="http://www.inkscape.org/namespaces/inkscape"
   xmlns:sodipodi="http://sodipodi.sourceforge.net/DTD/sodipodi-0.dtd"
   xmlns="http://www.w3.org/2000/svg"
   xmlns:svg="http://www.w3.org/2000/svg"><sodipodi:namedview
     id="namedview1"
     pagecolor="#ffffff"
     bordercolor="#000000"
     borderopacity="0.25"
     inkscape:showpageshadow="2"
     inkscape:pageopacity="0.0"
     inkscape:pagecheckerboard="0"
     inkscape:deskcolor="#d1d1d1"
     inkscape:document-units="mm" /><defs
     id="defs1" /><g
     inkscape:label="Layer 1"
     inkscape:groupmode="layer"
     id="layer1"
     transform="translate(-33.483688,-127.38831)"><rect
       style="fill:#0e3b65;stroke-width:0.117776;stroke-linecap:round;stroke-linejoin:round"
       id="rect1"
       width="598.05774"
       height="597.4848"
       x="33.483688"
       y="127.38831"
       ry="184.71739" /><path
       style="fill:#f4d45d;fill-opacity:1;stroke-width:0.646963;stroke-linecap:round;stroke-linejoin:round"
       d="m 75.212031,417.88596 v -55.85892 l 35.012829,0.39611 c 32.51461,0.36783 35.41529,0.58231 40.65308,3.00583 7.83488,3.62519 13.71582,9.11733 17.32131,16.17614 2.62996,5.14887 3.06345,7.67551 3.04986,17.7762 -0.0176,13.10627 -1.98146,18.53843 -9.37494,25.9319 -8.40611,8.40612 -11.83841,9.33598 -36.1569,9.79552 l -21.99922,0.4157 v 38.22042 H 89.465049 75.212031 Z m 65.783139,-9.73356 c 2.8295,-2.82949 3.62285,-4.73888 3.62285,-8.71934 0,-11.03933 -5.17931,-13.66735 -26.9568,-13.67815 l -13.94317,-0.006 v 13.01363 13.01361 h 16.82714 16.82714 z"
       id="path4"
       sodipodi:nodetypes="ccssssssccccccsccccccc" /><path
       style="fill:#f4d45d;fill-opacity:1;stroke-width:0.646963;stroke-linecap:round;stroke-linejoin:round"
       d="m 191.71492,362.17111 98.53169,0.64813 0.71271,22.92876 h -71.97776 v 21.06967 h 60.73022 v 23.54846 h -60.73022 v 19.79284 l 72.50445,0.65713 0.71271,22.92876 h -100.4838 z"
       id="path5"
       sodipodi:nodetypes="ccccccccccccc" /><path
       style="fill:#f4d45d;fill-opacity:1;stroke-width:0.646963;stroke-linecap:round;stroke-linejoin:round"
       d="m 388.11261,364.05863 c 0.76054,0.16544 57.63246,96.02762 65.3535,109.71605 0.35997,0.63819 -63.09945,-46.1234 -62.88544,-46.63968 0.26885,-0.64859 4.22045,-13.52258 6.6999,-20.31641 -28.86491,22.45331 -87.71207,67.14674 -87.71207,67.14674 0.15152,-0.18812 77.83193,-110.06163 78.54411,-109.9067 z"
       id="path6"
       sodipodi:nodetypes="sssccs" /><path
       style="fill:#f4d45d;fill-opacity:1;stroke-width:0.646963;stroke-linecap:round;stroke-linejoin:round"
       d="m 472.44013,474.96559 c 0,0.0388 -0.55387,-40.96119 0.34574,-111.41047 l 27.48022,-0.19683 0.67722,43.73229 46.9835,-43.65164 c 12.96419,0 23.52668,0.25165 34.76476,0.25165 0.64819,0 -11.89301,11.57116 -25.66575,25.21676 -13.19322,13.07144 -24.478,23.73228 -24.478,24.30837 0,2.00306 56.80549,61.74502 56.80549,61.74502 -8.04554,0.10951 -23.53797,0.009 -35.11612,0.003 l -41.42167,-43.35732 c -4.5972,3.37078 -8.48267,7.78893 -12.49191,11.85938 v 15.75968 15.75967 c -14.90491,0 -18.46821,-0.0233 -27.76728,-0.0192 z"
       id="path7"
       sodipodi:nodetypes="cccccsssscccccsc" /></g></svg>
